<svg xmlns="http://www.w3.org/2000/svg" xmlns:xlink="http://www.w3.org/1999/xlink" width="500" zoomAndPan="magnify" viewBox="0 0 375 374.999991" height="500" preserveAspectRatio="xMidYMid meet" version="1.0"><defs><clipPath id="8c7aef51fa"><path d="M 148.65625 169 L 157.65625 169 L 157.65625 171.527344 L 148.65625 171.527344 Z M 148.65625 169 " clip-rule="nonzero"/></clipPath><clipPath id="0d34d55e94"><path d="M 148.65625 167.777344 L 157.65625 167.777344 L 157.65625 171.527344 L 148.65625 171.527344 Z M 148.65625 167.777344 " clip-rule="nonzero"/></clipPath><clipPath id="27332d0dde"><path d="M 31 58 L 318 58 L 318 344.300781 L 31 344.300781 Z M 31 58 " clip-rule="nonzero"/></clipPath></defs><g clip-path="url(#8c7aef51fa)"><path fill="#ea8439" d="M 157.644531 169.558594 L 157.644531 169.871094 C 157.644531 169.871094 157.644531 169.871094 157.644531 169.875 C 157.644531 170.789062 156.890625 171.527344 155.964844 171.527344 L 150.347656 171.527344 C 149.417969 171.527344 148.667969 170.785156 148.667969 169.875 C 148.667969 169.871094 148.667969 169.867188 148.667969 169.863281 C 148.667969 169.859375 148.667969 169.855469 148.667969 169.851562 L 148.667969 169.558594 Z M 157.644531 169.445312 L 157.644531 169.871094 C 157.644531 169.871094 157.644531 169.871094 157.644531 169.875 C 157.644531 170.789062 156.890625 171.527344 155.964844 171.527344 L 150.347656 171.527344 C 149.417969 171.527344 148.667969 170.785156 148.667969 169.875 C 148.667969 169.871094 148.667969 169.867188 148.667969 169.863281 C 148.667969 169.859375 148.667969 169.855469 148.667969 169.851562 L 148.667969 169.433594 Z M 157.644531 169.445312 " fill-opacity="1" fill-rule="nonzero"/></g><g clip-path="url(#0d34d55e94)"><path fill="#fcd24f" d="M 157.644531 169.421875 L 157.644531 169.429688 C 157.644531 169.429688 157.644531 169.429688 157.644531 169.433594 C 157.644531 170.347656 156.890625 171.089844 155.964844 171.089844 L 150.347656 171.089844 C 149.417969 171.089844 148.667969 170.34375 148.667969 169.433594 C 148.667969 169.429688 148.667969 169.425781 148.667969 169.421875 C 148.667969 169.417969 148.667969 169.414062 148.667969 169.410156 C 148.679688 168.507812 149.425781 167.777344 150.347656 167.777344 L 155.964844 167.777344 C 156.886719 167.777344 157.636719 168.511719 157.644531 169.421875 Z M 157.644531 169.421875 L 157.644531 169.429688 C 157.644531 169.429688 157.644531 169.429688 157.644531 169.433594 C 157.644531 170.347656 156.890625 171.089844 155.964844 171.089844 L 150.347656 171.089844 C 149.417969 171.089844 148.667969 170.34375 148.667969 169.433594 C 148.667969 169.429688 148.667969 169.425781 148.667969 169.421875 C 148.667969 169.417969 148.667969 169.414062 148.667969 169.410156 C 148.679688 168.507812 149.425781 167.777344 150.347656 167.777344 L 155.964844 167.777344 C 156.886719 167.777344 157.636719 168.511719 157.644531 169.421875 Z M 157.644531 169.421875 " fill-opacity="1" fill-rule="nonzero"/></g><path fill="#1f1347" d="M 152.117188 168.730469 L 152.117188 170.011719 L 151.917969 170.011719 L 151.917969 169.132812 L 151.734375 170.011719 L 151.597656 170.011719 L 151.414062 169.132812 L 151.414062 170.011719 L 151.222656 170.011719 L 151.222656 168.730469 L 151.5 168.730469 L 151.671875 169.550781 L 151.835938 168.730469 Z M 152.519531 168.730469 L 153.078125 168.730469 L 153.078125 168.914062 L 152.714844 168.914062 L 152.714844 169.269531 L 153.003906 169.269531 L 153.003906 169.453125 L 152.714844 169.453125 L 152.714844 169.828125 L 153.078125 169.828125 L 153.078125 170.011719 L 152.519531 170.011719 Z M 153.429688 168.730469 L 153.648438 168.730469 L 153.898438 169.589844 L 153.898438 168.730469 L 154.089844 168.730469 L 154.089844 170.011719 L 153.882812 170.011719 L 153.621094 169.195312 L 153.621094 170.011719 L 153.429688 170.011719 Z M 154.566406 169.949219 C 154.507812 169.894531 154.480469 169.820312 154.480469 169.730469 L 154.480469 168.730469 L 154.679688 168.730469 L 154.679688 169.730469 C 154.679688 169.765625 154.6875 169.796875 154.707031 169.816406 C 154.730469 169.839844 154.753906 169.847656 154.789062 169.847656 C 154.820312 169.847656 154.847656 169.839844 154.867188 169.816406 C 154.886719 169.796875 154.898438 169.765625 154.898438 169.730469 L 154.898438 168.730469 L 155.089844 168.730469 L 155.089844 169.730469 C 155.089844 169.820312 155.0625 169.894531 155.007812 169.949219 C 154.949219 170.003906 154.878906 170.03125 154.789062 170.03125 C 154.695312 170.03125 154.625 170.003906 154.566406 169.949219 Z M 154.566406 169.949219 " fill-opacity="1" fill-rule="nonzero"/><g clip-path="url(#27332d0dde)"><path fill="#004aad" d="M 97.433594 58.453125 C 61.109375 58.453125 31.535156 88.085938 31.535156 124.355469 L 31.535156 278.125 C 31.535156 314.449219 61.109375 344.023438 97.433594 344.023438 L 251.203125 344.023438 C 287.527344 344.023438 317.105469 314.449219 317.105469 278.125 L 317.105469 212.222656 C 317.105469 206.160156 312.183594 201.238281 306.121094 201.238281 C 300.058594 201.238281 295.136719 206.160156 295.136719 212.222656 L 295.136719 278.125 C 295.136719 302.664062 275.746094 322.058594 251.203125 322.058594 L 97.433594 322.058594 C 72.949219 322.058594 53.5 302.664062 53.5 278.125 L 53.5 124.355469 C 53.5 99.871094 72.949219 80.421875 97.433594 80.421875 L 163.335938 80.421875 C 169.398438 80.421875 174.320312 75.503906 174.320312 69.4375 C 174.320312 63.375 169.398438 58.453125 163.335938 58.453125 Z M 97.433594 58.453125 " fill-opacity="1" fill-rule="nonzero"/></g><path fill="#004aad" d="M 254.75 50.902344 L 127.296875 178.359375 C 125.578125 180.074219 124.492188 182.304688 124.207031 184.648438 L 115.855469 245.976562 C 114.882812 253.066406 120.832031 259.132812 127.984375 258.386719 L 190.621094 251.410156 C 193.140625 251.125 195.429688 250.035156 197.203125 248.261719 L 324.65625 120.867188 C 343.875 101.589844 343.875 70.183594 324.65625 50.902344 C 305.777344 31.226562 273.226562 33 254.75 50.902344 Z M 309.09375 66.464844 C 319.964844 77.332031 319.964844 94.378906 309.09375 105.304688 L 297.425781 116.976562 L 258.640625 78.132812 L 270.253906 66.464844 C 283.007812 53.707031 298.742188 56.109375 309.09375 66.464844 Z M 243.078125 93.636719 L 281.921875 132.480469 L 184.386719 230.015625 L 139.539062 234.992188 L 145.429688 191.285156 Z M 243.078125 93.636719 " fill-opacity="1" fill-rule="nonzero"/></svg>