<svg xmlns="http://www.w3.org/2000/svg" xmlns:xlink="http://www.w3.org/1999/xlink" width="500" zoomAndPan="magnify" viewBox="0 0 375 374.999991" height="500" preserveAspectRatio="xMidYMid meet" version="1.0"><defs><clipPath id="2fd3d38146"><path d="M 245.402344 185 L 254.402344 185 L 254.402344 187.542969 L 245.402344 187.542969 Z M 245.402344 185 " clip-rule="nonzero"/></clipPath><clipPath id="f81c708b49"><path d="M 245.402344 183.792969 L 254.402344 183.792969 L 254.402344 187.542969 L 245.402344 187.542969 Z M 245.402344 183.792969 " clip-rule="nonzero"/></clipPath><clipPath id="0e8b314b61"><path d="M 23 72 L 353.269531 72 L 353.269531 303 L 23 303 Z M 23 72 " clip-rule="nonzero"/></clipPath></defs><g clip-path="url(#2fd3d38146)"><path fill="#ea8439" d="M 254.390625 185.570312 L 254.390625 185.882812 C 254.390625 185.886719 254.390625 185.886719 254.390625 185.886719 C 254.390625 186.800781 253.640625 187.542969 252.710938 187.542969 L 247.09375 187.542969 C 246.167969 187.542969 245.414062 186.800781 245.414062 185.886719 C 245.414062 185.882812 245.414062 185.878906 245.414062 185.875 C 245.414062 185.871094 245.414062 185.867188 245.414062 185.863281 L 245.414062 185.570312 Z M 254.390625 185.457031 L 254.390625 185.882812 C 254.390625 185.886719 254.390625 185.886719 254.390625 185.886719 C 254.390625 186.800781 253.640625 187.542969 252.710938 187.542969 L 247.09375 187.542969 C 246.167969 187.542969 245.414062 186.800781 245.414062 185.886719 C 245.414062 185.882812 245.414062 185.878906 245.414062 185.875 C 245.414062 185.871094 245.414062 185.867188 245.414062 185.863281 L 245.414062 185.445312 Z M 254.390625 185.457031 " fill-opacity="1" fill-rule="nonzero"/></g><g clip-path="url(#f81c708b49)"><path fill="#fcd24f" d="M 254.390625 185.433594 L 254.390625 185.441406 C 254.390625 185.445312 254.390625 185.445312 254.390625 185.445312 C 254.390625 186.359375 253.640625 187.101562 252.710938 187.101562 L 247.09375 187.101562 C 246.167969 187.101562 245.414062 186.359375 245.414062 185.445312 C 245.414062 185.441406 245.414062 185.4375 245.414062 185.433594 C 245.414062 185.429688 245.414062 185.429688 245.414062 185.421875 C 245.425781 184.519531 246.171875 183.792969 247.09375 183.792969 L 252.710938 183.792969 C 253.636719 183.792969 254.386719 184.523438 254.390625 185.433594 Z M 254.390625 185.433594 L 254.390625 185.441406 C 254.390625 185.445312 254.390625 185.445312 254.390625 185.445312 C 254.390625 186.359375 253.640625 187.101562 252.710938 187.101562 L 247.09375 187.101562 C 246.167969 187.101562 245.414062 186.359375 245.414062 185.445312 C 245.414062 185.441406 245.414062 185.4375 245.414062 185.433594 C 245.414062 185.429688 245.414062 185.429688 245.414062 185.421875 C 245.425781 184.519531 246.171875 183.792969 247.09375 183.792969 L 252.710938 183.792969 C 253.636719 183.792969 254.386719 184.523438 254.390625 185.433594 Z M 254.390625 185.433594 " fill-opacity="1" fill-rule="nonzero"/></g><path fill="#1f1347" d="M 248.863281 184.746094 L 248.863281 186.023438 L 248.664062 186.023438 L 248.664062 185.148438 L 248.480469 186.023438 L 248.34375 186.023438 L 248.160156 185.148438 L 248.160156 186.023438 L 247.96875 186.023438 L 247.96875 184.746094 L 248.246094 184.746094 L 248.417969 185.5625 L 248.582031 184.746094 Z M 249.265625 184.746094 L 249.824219 184.746094 L 249.824219 184.925781 L 249.460938 184.925781 L 249.460938 185.285156 L 249.75 185.285156 L 249.75 185.464844 L 249.460938 185.464844 L 249.460938 185.839844 L 249.824219 185.839844 L 249.824219 186.023438 L 249.265625 186.023438 Z M 250.175781 184.746094 L 250.394531 184.746094 L 250.644531 185.605469 L 250.644531 184.746094 L 250.839844 184.746094 L 250.839844 186.023438 L 250.628906 186.023438 L 250.367188 185.207031 L 250.367188 186.023438 L 250.175781 186.023438 Z M 251.3125 185.960938 C 251.257812 185.90625 251.226562 185.832031 251.226562 185.742188 L 251.226562 184.746094 L 251.425781 184.746094 L 251.425781 185.742188 C 251.425781 185.78125 251.433594 185.808594 251.457031 185.832031 C 251.476562 185.851562 251.503906 185.863281 251.535156 185.863281 C 251.566406 185.863281 251.59375 185.851562 251.613281 185.832031 C 251.636719 185.808594 251.644531 185.78125 251.644531 185.742188 L 251.644531 184.746094 L 251.835938 184.746094 L 251.835938 185.742188 C 251.835938 185.832031 251.808594 185.90625 251.753906 185.960938 C 251.699219 186.015625 251.625 186.042969 251.535156 186.042969 C 251.445312 186.042969 251.371094 186.015625 251.3125 185.960938 Z M 251.3125 185.960938 " fill-opacity="1" fill-rule="nonzero"/><g clip-path="url(#0e8b314b61)"><path fill="#004aad" d="M 39.90625 72.066406 C 39.363281 72.058594 38.820312 72.078125 38.277344 72.125 C 37.734375 72.171875 37.191406 72.242188 36.65625 72.34375 C 36.121094 72.441406 35.59375 72.570312 35.070312 72.722656 C 34.546875 72.871094 34.03125 73.050781 33.523438 73.253906 C 33.019531 73.457031 32.523438 73.683594 32.042969 73.9375 C 31.558594 74.1875 31.089844 74.464844 30.632812 74.761719 C 30.179688 75.0625 29.738281 75.382812 29.3125 75.726562 C 28.890625 76.066406 28.484375 76.429688 28.097656 76.8125 C 27.707031 77.195312 27.339844 77.597656 26.992188 78.015625 C 26.644531 78.433594 26.316406 78.871094 26.011719 79.320312 C 25.707031 79.773438 25.421875 80.238281 25.164062 80.71875 C 24.90625 81.199219 24.671875 81.6875 24.460938 82.191406 C 24.25 82.695312 24.066406 83.207031 23.90625 83.726562 C 23.746094 84.25 23.613281 84.777344 23.503906 85.308594 C 23.398438 85.84375 23.316406 86.382812 23.261719 86.925781 C 23.210938 87.46875 23.183594 88.011719 23.183594 88.554688 C 23.183594 89.101562 23.210938 89.644531 23.261719 90.1875 C 23.316406 90.730469 23.398438 91.269531 23.503906 91.800781 C 23.613281 92.335938 23.746094 92.863281 23.90625 93.386719 C 24.066406 93.90625 24.25 94.417969 24.460938 94.921875 C 24.671875 95.425781 24.90625 95.914062 25.164062 96.394531 C 25.421875 96.875 25.707031 97.339844 26.011719 97.792969 C 26.316406 98.242188 26.644531 98.679688 26.992188 99.097656 C 27.339844 99.515625 27.707031 99.917969 28.097656 100.300781 C 28.484375 100.683594 28.890625 101.046875 29.3125 101.386719 C 29.738281 101.730469 30.179688 102.050781 30.632812 102.347656 C 31.089844 102.648438 31.558594 102.921875 32.042969 103.175781 C 32.523438 103.429688 33.019531 103.65625 33.523438 103.859375 C 34.03125 104.0625 34.546875 104.238281 35.070312 104.390625 C 35.59375 104.542969 36.121094 104.671875 36.65625 104.769531 C 37.191406 104.871094 37.734375 104.941406 38.277344 104.988281 C 38.820312 105.035156 39.363281 105.054688 39.90625 105.046875 L 336.730469 105.046875 C 337.277344 105.054688 337.820312 105.035156 338.363281 104.988281 C 338.90625 104.941406 339.445312 104.871094 339.980469 104.769531 C 340.515625 104.671875 341.046875 104.542969 341.570312 104.390625 C 342.09375 104.238281 342.609375 104.0625 343.113281 103.859375 C 343.621094 103.65625 344.113281 103.429688 344.597656 103.175781 C 345.078125 102.921875 345.550781 102.648438 346.003906 102.347656 C 346.460938 102.050781 346.902344 101.730469 347.324219 101.386719 C 347.75 101.046875 348.15625 100.683594 348.542969 100.300781 C 348.929688 99.917969 349.300781 99.515625 349.648438 99.097656 C 349.996094 98.679688 350.324219 98.242188 350.628906 97.792969 C 350.933594 97.339844 351.214844 96.875 351.472656 96.394531 C 351.734375 95.914062 351.96875 95.425781 352.179688 94.921875 C 352.390625 94.417969 352.574219 93.90625 352.734375 93.386719 C 352.894531 92.863281 353.027344 92.335938 353.132812 91.800781 C 353.242188 91.269531 353.320312 90.730469 353.375 90.1875 C 353.429688 89.644531 353.457031 89.101562 353.457031 88.554688 C 353.457031 88.011719 353.429688 87.46875 353.375 86.925781 C 353.320312 86.382812 353.242188 85.84375 353.132812 85.308594 C 353.027344 84.777344 352.894531 84.25 352.734375 83.726562 C 352.574219 83.207031 352.390625 82.695312 352.179688 82.191406 C 351.96875 81.6875 351.734375 81.199219 351.472656 80.71875 C 351.214844 80.238281 350.933594 79.773438 350.628906 79.320312 C 350.324219 78.871094 349.996094 78.433594 349.648438 78.015625 C 349.300781 77.597656 348.929688 77.195312 348.542969 76.8125 C 348.15625 76.429688 347.75 76.066406 347.324219 75.726562 C 346.902344 75.382812 346.460938 75.0625 346.003906 74.761719 C 345.550781 74.464844 345.078125 74.1875 344.597656 73.9375 C 344.113281 73.683594 343.621094 73.457031 343.113281 73.253906 C 342.609375 73.050781 342.09375 72.871094 341.570312 72.722656 C 341.046875 72.570312 340.515625 72.441406 339.980469 72.34375 C 339.445312 72.242188 338.90625 72.171875 338.363281 72.125 C 337.820312 72.078125 337.277344 72.058594 336.730469 72.066406 Z M 39.90625 171.007812 C 39.363281 171 38.820312 171.019531 38.277344 171.066406 C 37.734375 171.113281 37.191406 171.183594 36.65625 171.285156 C 36.121094 171.382812 35.59375 171.511719 35.070312 171.660156 C 34.546875 171.8125 34.03125 171.992188 33.523438 172.195312 C 33.019531 172.398438 32.523438 172.625 32.042969 172.878906 C 31.558594 173.128906 31.089844 173.40625 30.632812 173.703125 C 30.179688 174.003906 29.738281 174.324219 29.3125 174.667969 C 28.890625 175.007812 28.484375 175.371094 28.097656 175.753906 C 27.707031 176.136719 27.339844 176.539062 26.992188 176.957031 C 26.644531 177.375 26.316406 177.8125 26.011719 178.261719 C 25.707031 178.714844 25.421875 179.179688 25.164062 179.660156 C 24.90625 180.140625 24.671875 180.628906 24.460938 181.132812 C 24.25 181.636719 24.066406 182.148438 23.90625 182.667969 C 23.746094 183.191406 23.613281 183.71875 23.503906 184.25 C 23.398438 184.785156 23.316406 185.324219 23.265625 185.867188 C 23.210938 186.410156 23.183594 186.953125 23.183594 187.496094 C 23.183594 188.042969 23.210938 188.585938 23.265625 189.128906 C 23.316406 189.671875 23.398438 190.210938 23.503906 190.742188 C 23.613281 191.277344 23.746094 191.804688 23.90625 192.328125 C 24.066406 192.847656 24.25 193.359375 24.460938 193.863281 C 24.671875 194.367188 24.90625 194.855469 25.164062 195.335938 C 25.421875 195.816406 25.707031 196.28125 26.011719 196.734375 C 26.316406 197.183594 26.644531 197.621094 26.992188 198.039062 C 27.339844 198.457031 27.707031 198.859375 28.097656 199.242188 C 28.484375 199.625 28.890625 199.984375 29.3125 200.328125 C 29.738281 200.671875 30.179688 200.992188 30.632812 201.289062 C 31.089844 201.589844 31.558594 201.863281 32.042969 202.117188 C 32.523438 202.371094 33.019531 202.597656 33.523438 202.800781 C 34.03125 203.003906 34.546875 203.179688 35.070312 203.332031 C 35.59375 203.484375 36.121094 203.613281 36.65625 203.710938 C 37.191406 203.8125 37.734375 203.882812 38.277344 203.929688 C 38.820312 203.976562 39.363281 203.996094 39.90625 203.988281 L 336.730469 203.988281 C 337.277344 203.996094 337.820312 203.976562 338.363281 203.929688 C 338.90625 203.882812 339.445312 203.8125 339.980469 203.710938 C 340.515625 203.613281 341.046875 203.484375 341.570312 203.332031 C 342.09375 203.179688 342.609375 203.003906 343.113281 202.800781 C 343.621094 202.597656 344.113281 202.371094 344.597656 202.117188 C 345.078125 201.863281 345.550781 201.589844 346.003906 201.289062 C 346.460938 200.992188 346.902344 200.671875 347.324219 200.328125 C 347.75 199.984375 348.15625 199.625 348.542969 199.242188 C 348.929688 198.859375 349.300781 198.457031 349.648438 198.039062 C 349.996094 197.621094 350.324219 197.183594 350.628906 196.734375 C 350.933594 196.28125 351.214844 195.816406 351.472656 195.335938 C 351.734375 194.855469 351.96875 194.367188 352.179688 193.863281 C 352.386719 193.359375 352.574219 192.847656 352.734375 192.328125 C 352.894531 191.804688 353.027344 191.277344 353.132812 190.742188 C 353.242188 190.210938 353.320312 189.671875 353.375 189.128906 C 353.429688 188.585938 353.457031 188.042969 353.457031 187.496094 C 353.457031 186.953125 353.429688 186.410156 353.375 185.867188 C 353.320312 185.324219 353.242188 184.785156 353.132812 184.25 C 353.027344 183.71875 352.894531 183.191406 352.734375 182.667969 C 352.574219 182.148438 352.386719 181.636719 352.179688 181.132812 C 351.96875 180.628906 351.734375 180.140625 351.472656 179.660156 C 351.214844 179.179688 350.933594 178.714844 350.628906 178.261719 C 350.324219 177.8125 349.996094 177.375 349.648438 176.957031 C 349.300781 176.539062 348.929688 176.136719 348.542969 175.753906 C 348.15625 175.371094 347.75 175.007812 347.324219 174.667969 C 346.902344 174.324219 346.460938 174.003906 346.003906 173.703125 C 345.550781 173.40625 345.078125 173.128906 344.597656 172.878906 C 344.113281 172.625 343.621094 172.398438 343.113281 172.195312 C 342.609375 171.992188 342.09375 171.8125 341.570312 171.660156 C 341.046875 171.511719 340.515625 171.382812 339.980469 171.285156 C 339.445312 171.183594 338.90625 171.113281 338.363281 171.066406 C 337.820312 171.019531 337.277344 171 336.730469 171.007812 Z M 39.90625 269.949219 C 39.363281 269.941406 38.820312 269.960938 38.277344 270.007812 C 37.734375 270.050781 37.191406 270.125 36.65625 270.226562 C 36.121094 270.324219 35.59375 270.449219 35.070312 270.601562 C 34.546875 270.753906 34.03125 270.933594 33.523438 271.136719 C 33.019531 271.339844 32.523438 271.566406 32.042969 271.820312 C 31.558594 272.070312 31.089844 272.347656 30.632812 272.644531 C 30.175781 272.945312 29.738281 273.265625 29.3125 273.609375 C 28.890625 273.949219 28.484375 274.3125 28.09375 274.695312 C 27.707031 275.078125 27.339844 275.480469 26.992188 275.898438 C 26.644531 276.316406 26.316406 276.753906 26.011719 277.203125 C 25.707031 277.65625 25.421875 278.121094 25.164062 278.601562 C 24.90625 279.078125 24.671875 279.570312 24.460938 280.074219 C 24.25 280.578125 24.066406 281.089844 23.90625 281.609375 C 23.746094 282.128906 23.613281 282.660156 23.503906 283.191406 C 23.398438 283.726562 23.316406 284.265625 23.261719 284.808594 C 23.210938 285.351562 23.183594 285.894531 23.183594 286.4375 C 23.183594 286.984375 23.210938 287.527344 23.261719 288.070312 C 23.316406 288.613281 23.398438 289.152344 23.503906 289.683594 C 23.613281 290.21875 23.746094 290.746094 23.90625 291.269531 C 24.066406 291.789062 24.25 292.300781 24.460938 292.804688 C 24.671875 293.308594 24.90625 293.796875 25.164062 294.277344 C 25.421875 294.757812 25.707031 295.222656 26.011719 295.675781 C 26.316406 296.125 26.644531 296.5625 26.992188 296.980469 C 27.339844 297.398438 27.707031 297.800781 28.09375 298.183594 C 28.484375 298.566406 28.890625 298.929688 29.3125 299.269531 C 29.738281 299.613281 30.175781 299.933594 30.632812 300.230469 C 31.089844 300.53125 31.558594 300.804688 32.042969 301.058594 C 32.523438 301.3125 33.019531 301.539062 33.523438 301.742188 C 34.03125 301.945312 34.546875 302.121094 35.070312 302.273438 C 35.59375 302.425781 36.121094 302.554688 36.65625 302.652344 C 37.191406 302.753906 37.734375 302.824219 38.277344 302.871094 C 38.820312 302.917969 39.363281 302.9375 39.90625 302.929688 L 336.730469 302.929688 C 337.277344 302.9375 337.820312 302.917969 338.363281 302.871094 C 338.90625 302.824219 339.445312 302.753906 339.980469 302.652344 C 340.515625 302.554688 341.046875 302.425781 341.570312 302.273438 C 342.09375 302.121094 342.609375 301.945312 343.113281 301.742188 C 343.621094 301.539062 344.113281 301.3125 344.597656 301.058594 C 345.082031 300.804688 345.550781 300.53125 346.003906 300.230469 C 346.460938 299.933594 346.902344 299.613281 347.324219 299.269531 C 347.75 298.929688 348.15625 298.566406 348.542969 298.183594 C 348.929688 297.800781 349.300781 297.398438 349.648438 296.980469 C 349.996094 296.5625 350.324219 296.125 350.628906 295.675781 C 350.933594 295.222656 351.214844 294.757812 351.476562 294.277344 C 351.734375 293.796875 351.96875 293.308594 352.179688 292.804688 C 352.390625 292.300781 352.574219 291.789062 352.734375 291.269531 C 352.894531 290.746094 353.027344 290.21875 353.132812 289.683594 C 353.242188 289.152344 353.320312 288.613281 353.375 288.070312 C 353.429688 287.527344 353.457031 286.984375 353.457031 286.4375 C 353.457031 285.894531 353.429688 285.351562 353.375 284.808594 C 353.320312 284.265625 353.242188 283.726562 353.132812 283.191406 C 353.027344 282.660156 352.894531 282.128906 352.734375 281.609375 C 352.574219 281.089844 352.390625 280.578125 352.179688 280.074219 C 351.96875 279.570312 351.734375 279.078125 351.476562 278.601562 C 351.214844 278.121094 350.933594 277.65625 350.628906 277.203125 C 350.324219 276.753906 349.996094 276.316406 349.648438 275.898438 C 349.300781 275.480469 348.929688 275.078125 348.542969 274.695312 C 348.15625 274.3125 347.75 273.949219 347.324219 273.609375 C 346.902344 273.265625 346.460938 272.945312 346.003906 272.644531 C 345.550781 272.347656 345.082031 272.070312 344.597656 271.820312 C 344.113281 271.566406 343.621094 271.339844 343.113281 271.136719 C 342.609375 270.933594 342.09375 270.753906 341.570312 270.601562 C 341.046875 270.449219 340.515625 270.324219 339.980469 270.226562 C 339.445312 270.125 338.90625 270.050781 338.363281 270.007812 C 337.820312 269.960938 337.277344 269.941406 336.730469 269.949219 Z M 39.90625 269.949219 " fill-opacity="1" fill-rule="nonzero"/></g></svg>