<svg xmlns="http://www.w3.org/2000/svg" xmlns:xlink="http://www.w3.org/1999/xlink" width="500" zoomAndPan="magnify" viewBox="0 0 375 374.999991" height="500" preserveAspectRatio="xMidYMid meet" version="1.0"><defs><clipPath id="2cf5d7e999"><path d="M 34 40 L 343.167969 40 L 343.167969 335.339844 L 34 335.339844 Z M 34 40 " clip-rule="nonzero"/></clipPath></defs><g clip-path="url(#2cf5d7e999)"><path fill="#004aad" d="M 318.886719 73.15625 L 296.1875 73.15625 C 292.976562 71.273438 289.53125 70.050781 285.851562 69.480469 L 270.882812 67.242188 L 270.882812 60.15625 C 270.882812 59.238281 270.792969 58.324219 270.613281 57.421875 C 270.433594 56.519531 270.167969 55.644531 269.8125 54.792969 C 269.460938 53.945312 269.03125 53.136719 268.519531 52.371094 C 268.007812 51.605469 267.425781 50.898438 266.777344 50.246094 C 266.125 49.597656 265.417969 49.015625 264.652344 48.503906 C 263.886719 47.996094 263.082031 47.5625 262.230469 47.210938 C 261.378906 46.859375 260.503906 46.59375 259.601562 46.414062 C 258.699219 46.234375 257.789062 46.144531 256.867188 46.144531 L 239.125 46.144531 C 238.207031 46.144531 237.292969 46.234375 236.390625 46.414062 C 235.488281 46.59375 234.613281 46.859375 233.761719 47.210938 C 232.914062 47.5625 232.105469 47.996094 231.339844 48.503906 C 230.574219 49.015625 229.867188 49.597656 229.21875 50.246094 C 228.566406 50.898438 227.984375 51.605469 227.476562 52.371094 C 226.964844 53.136719 226.53125 53.945312 226.179688 54.792969 C 225.828125 55.644531 225.5625 56.519531 225.382812 57.421875 C 225.203125 58.324219 225.113281 59.238281 225.113281 60.15625 L 97.507812 41.296875 C 96.574219 41.152344 95.636719 41.054688 94.691406 41.003906 C 93.75 40.953125 92.804688 40.949219 91.859375 40.992188 C 90.917969 41.03125 89.976562 41.121094 89.042969 41.257812 C 88.105469 41.390625 87.179688 41.570312 86.265625 41.796875 C 85.347656 42.023438 84.441406 42.292969 83.550781 42.609375 C 82.660156 42.921875 81.789062 43.28125 80.933594 43.683594 C 80.078125 44.082031 79.242188 44.523438 78.429688 45.007812 C 77.621094 45.492188 76.832031 46.011719 76.074219 46.574219 C 75.3125 47.132812 74.582031 47.730469 73.878906 48.363281 C 73.175781 48.996094 72.507812 49.660156 71.871094 50.359375 C 71.238281 51.058594 70.636719 51.785156 70.070312 52.542969 C 69.507812 53.300781 68.980469 54.082031 68.492188 54.894531 C 68.007812 55.703125 67.558594 56.535156 67.15625 57.386719 C 66.75 58.242188 66.386719 59.113281 66.066406 60 C 65.746094 60.890625 65.472656 61.792969 65.242188 62.707031 C 65.011719 63.625 64.828125 64.550781 64.6875 65.484375 L 34.371094 267.417969 C 34.230469 268.351562 34.136719 269.292969 34.089844 270.238281 C 34.042969 271.183594 34.039062 272.128906 34.085938 273.074219 C 34.128906 274.019531 34.21875 274.960938 34.359375 275.894531 C 34.496094 276.832031 34.675781 277.757812 34.90625 278.675781 C 35.132812 279.597656 35.40625 280.5 35.722656 281.394531 C 36.039062 282.285156 36.398438 283.160156 36.800781 284.015625 C 37.203125 284.871094 37.644531 285.707031 38.128906 286.519531 C 38.613281 287.332031 39.136719 288.121094 39.695312 288.882812 C 40.257812 289.644531 40.855469 290.378906 41.488281 291.082031 C 42.121094 291.785156 42.785156 292.457031 43.484375 293.09375 C 44.183594 293.734375 44.910156 294.335938 45.667969 294.902344 C 46.425781 295.46875 47.207031 296 48.019531 296.488281 C 48.828125 296.980469 49.660156 297.429688 50.511719 297.835938 C 51.367188 298.246094 52.238281 298.613281 53.125 298.9375 C 54.015625 299.257812 54.917969 299.539062 55.835938 299.773438 C 56.75 300.007812 57.675781 300.199219 58.613281 300.34375 L 94.898438 305.671875 L 94.898438 311 C 94.898438 311.796875 94.9375 312.589844 95.019531 313.378906 C 95.097656 314.171875 95.21875 314.957031 95.375 315.738281 C 95.53125 316.515625 95.730469 317.289062 95.960938 318.046875 C 96.195312 318.808594 96.464844 319.554688 96.773438 320.289062 C 97.082031 321.023438 97.421875 321.738281 97.800781 322.441406 C 98.179688 323.140625 98.589844 323.820312 99.035156 324.480469 C 99.480469 325.140625 99.957031 325.773438 100.464844 326.386719 C 100.972656 327 101.511719 327.585938 102.074219 328.144531 C 102.640625 328.703125 103.234375 329.234375 103.851562 329.734375 C 104.46875 330.238281 105.109375 330.707031 105.773438 331.144531 C 106.4375 331.582031 107.121094 331.984375 107.828125 332.355469 C 108.53125 332.726562 109.25 333.0625 109.988281 333.359375 C 110.726562 333.660156 111.476562 333.921875 112.238281 334.148438 C 113.003906 334.371094 113.773438 334.558594 114.554688 334.707031 C 115.335938 334.859375 116.125 334.96875 116.917969 335.039062 C 117.710938 335.109375 118.503906 335.140625 119.300781 335.136719 L 319.097656 335.136719 C 319.886719 335.125 320.671875 335.078125 321.453125 334.996094 C 322.238281 334.910156 323.015625 334.785156 323.785156 334.625 C 324.554688 334.464844 325.316406 334.265625 326.066406 334.03125 C 326.820312 333.796875 327.558594 333.527344 328.28125 333.21875 C 329.007812 332.914062 329.714844 332.570312 330.40625 332.195312 C 331.101562 331.820312 331.773438 331.410156 332.421875 330.96875 C 333.074219 330.527344 333.703125 330.054688 334.308594 329.554688 C 334.917969 329.050781 335.496094 328.519531 336.050781 327.960938 C 336.605469 327.402344 337.132812 326.816406 337.628906 326.207031 C 338.125 325.59375 338.59375 324.960938 339.027344 324.308594 C 339.464844 323.652344 339.867188 322.976562 340.234375 322.28125 C 340.605469 321.585938 340.941406 320.875 341.242188 320.144531 C 341.542969 319.417969 341.804688 318.675781 342.035156 317.925781 C 342.261719 317.171875 342.453125 316.40625 342.609375 315.636719 C 342.761719 314.863281 342.878906 314.085938 342.957031 313.300781 C 343.035156 312.519531 343.074219 311.734375 343.074219 310.945312 L 343.074219 97.453125 C 343.078125 96.660156 343.039062 95.867188 342.964844 95.074219 C 342.886719 94.285156 342.773438 93.5 342.621094 92.722656 C 342.46875 91.941406 342.277344 91.171875 342.046875 90.414062 C 341.820312 89.652344 341.554688 88.90625 341.25 88.171875 C 340.949219 87.4375 340.609375 86.71875 340.238281 86.019531 C 339.867188 85.316406 339.460938 84.636719 339.019531 83.976562 C 338.578125 83.3125 338.109375 82.675781 337.605469 82.0625 C 337.105469 81.445312 336.574219 80.859375 336.011719 80.296875 C 335.453125 79.730469 334.867188 79.199219 334.253906 78.695312 C 333.640625 78.1875 333.003906 77.714844 332.347656 77.273438 C 331.6875 76.828125 331.007812 76.421875 330.308594 76.042969 C 329.609375 75.667969 328.890625 75.328125 328.160156 75.023438 C 327.425781 74.71875 326.679688 74.449219 325.921875 74.214844 C 325.160156 73.984375 324.394531 73.789062 323.613281 73.632812 C 322.835938 73.476562 322.050781 73.359375 321.261719 73.277344 C 320.472656 73.199219 319.679688 73.160156 318.886719 73.15625 Z M 235.449219 60.15625 C 235.449219 59.667969 235.542969 59.195312 235.726562 58.742188 C 235.914062 58.289062 236.179688 57.886719 236.523438 57.539062 C 236.867188 57.1875 237.265625 56.917969 237.714844 56.726562 C 238.164062 56.535156 238.636719 56.433594 239.125 56.425781 L 256.867188 56.425781 C 257.359375 56.433594 257.832031 56.53125 258.289062 56.726562 C 258.742188 56.917969 259.140625 57.1875 259.492188 57.535156 C 259.839844 57.882812 260.109375 58.285156 260.300781 58.738281 C 260.492188 59.191406 260.589844 59.664062 260.597656 60.15625 L 260.597656 65.484375 L 235.449219 61.753906 Z M 94.898438 97.453125 L 94.898438 295.335938 L 60.15625 290.007812 C 59.554688 289.914062 58.953125 289.792969 58.359375 289.640625 C 57.765625 289.492188 57.183594 289.308594 56.609375 289.101562 C 56.03125 288.890625 55.46875 288.65625 54.917969 288.390625 C 54.363281 288.128906 53.828125 287.835938 53.304688 287.519531 C 52.78125 287.203125 52.273438 286.859375 51.785156 286.492188 C 51.292969 286.125 50.824219 285.734375 50.371094 285.320312 C 49.921875 284.90625 49.492188 284.472656 49.082031 284.015625 C 48.675781 283.5625 48.289062 283.085938 47.925781 282.59375 C 47.566406 282.097656 47.230469 281.589844 46.917969 281.0625 C 46.605469 280.535156 46.320312 279.992188 46.0625 279.4375 C 45.804688 278.882812 45.574219 278.316406 45.371094 277.738281 C 45.171875 277.160156 44.996094 276.574219 44.851562 275.980469 C 44.707031 275.386719 44.59375 274.785156 44.507812 274.179688 C 44.421875 273.574219 44.367188 272.964844 44.339844 272.351562 C 44.3125 271.742188 44.320312 271.128906 44.351562 270.519531 C 44.386719 269.90625 44.453125 269.300781 44.546875 268.695312 L 74.863281 66.761719 C 75.226562 64.382812 76.027344 62.164062 77.265625 60.097656 C 78.5 58.03125 80.078125 56.273438 82.003906 54.828125 C 82.980469 54.101562 84.023438 53.476562 85.128906 52.960938 C 86.230469 52.441406 87.375 52.039062 88.5625 51.75 C 89.746094 51.460938 90.949219 51.292969 92.167969 51.246094 C 93.386719 51.199219 94.597656 51.277344 95.800781 51.472656 L 240.777344 73.15625 L 119.300781 73.15625 C 118.5 73.148438 117.703125 73.183594 116.90625 73.253906 C 116.113281 73.324219 115.320312 73.4375 114.535156 73.585938 C 113.75 73.738281 112.976562 73.925781 112.210938 74.152344 C 111.445312 74.378906 110.691406 74.644531 109.953125 74.945312 C 109.210938 75.25 108.488281 75.585938 107.78125 75.960938 C 107.078125 76.332031 106.390625 76.738281 105.722656 77.179688 C 105.058594 77.621094 104.414062 78.09375 103.796875 78.601562 C 103.175781 79.105469 102.585938 79.640625 102.019531 80.203125 C 101.453125 80.765625 100.914062 81.355469 100.40625 81.972656 C 99.898438 82.589844 99.425781 83.230469 98.980469 83.894531 C 98.535156 84.558594 98.125 85.242188 97.75 85.949219 C 97.371094 86.652344 97.03125 87.375 96.726562 88.113281 C 96.421875 88.851562 96.15625 89.605469 95.925781 90.367188 C 95.695312 91.132812 95.5 91.90625 95.347656 92.691406 C 95.195312 93.476562 95.078125 94.265625 95.003906 95.0625 C 94.929688 95.855469 94.894531 96.652344 94.898438 97.453125 Z M 332.792969 310.945312 C 332.789062 311.855469 332.695312 312.757812 332.515625 313.652344 C 332.335938 314.542969 332.070312 315.410156 331.71875 316.25 C 331.367188 317.09375 330.9375 317.890625 330.429688 318.644531 C 329.921875 319.402344 329.347656 320.101562 328.699219 320.746094 C 328.054688 321.386719 327.355469 321.960938 326.597656 322.464844 C 325.835938 322.972656 325.039062 323.398438 324.195312 323.746094 C 323.355469 324.09375 322.484375 324.355469 321.59375 324.535156 C 320.699219 324.710938 319.796875 324.800781 318.886719 324.800781 L 119.300781 324.800781 C 118.386719 324.800781 117.484375 324.710938 116.59375 324.535156 C 115.699219 324.355469 114.832031 324.09375 113.988281 323.746094 C 113.148438 323.398438 112.347656 322.972656 111.589844 322.464844 C 110.832031 321.960938 110.128906 321.386719 109.484375 320.746094 C 108.839844 320.101562 108.261719 319.402344 107.753906 318.648438 C 107.246094 317.890625 106.816406 317.09375 106.464844 316.25 C 106.117188 315.410156 105.851562 314.542969 105.667969 313.652344 C 105.488281 312.757812 105.394531 311.855469 105.394531 310.945312 L 105.394531 97.453125 C 105.390625 96.539062 105.476562 95.628906 105.652344 94.730469 C 105.828125 93.832031 106.089844 92.960938 106.4375 92.113281 C 106.785156 91.269531 107.210938 90.464844 107.71875 89.703125 C 108.222656 88.9375 108.800781 88.234375 109.445312 87.585938 C 110.09375 86.9375 110.796875 86.359375 111.554688 85.847656 C 112.316406 85.339844 113.121094 84.90625 113.964844 84.558594 C 114.808594 84.207031 115.683594 83.941406 116.578125 83.761719 C 117.476562 83.582031 118.382812 83.492188 119.300781 83.492188 L 260.597656 83.492188 L 260.597656 121.695312 C 260.597656 122.191406 260.503906 122.664062 260.3125 123.121094 C 260.125 123.578125 259.855469 123.984375 259.503906 124.332031 C 259.15625 124.683594 258.753906 124.953125 258.296875 125.140625 C 257.839844 125.328125 257.363281 125.425781 256.867188 125.425781 C 256.375 125.425781 255.898438 125.328125 255.441406 125.140625 C 254.984375 124.953125 254.582031 124.683594 254.230469 124.332031 C 253.882812 123.984375 253.613281 123.578125 253.421875 123.121094 C 253.234375 122.664062 253.136719 122.191406 253.136719 121.695312 L 253.136719 96.226562 C 253.246094 95.832031 253.308594 95.429688 253.320312 95.019531 C 253.335938 94.613281 253.304688 94.207031 253.226562 93.804688 C 253.148438 93.402344 253.023438 93.015625 252.855469 92.640625 C 252.6875 92.269531 252.480469 91.917969 252.230469 91.59375 C 251.980469 91.269531 251.699219 90.976562 251.382812 90.714844 C 251.066406 90.457031 250.726562 90.234375 250.359375 90.054688 C 249.992188 89.871094 249.609375 89.734375 249.210938 89.640625 C 248.8125 89.546875 248.40625 89.5 247.996094 89.5 C 247.585938 89.5 247.183594 89.546875 246.785156 89.640625 C 246.386719 89.734375 246.003906 89.871094 245.636719 90.054688 C 245.269531 90.234375 244.925781 90.457031 244.613281 90.714844 C 244.296875 90.976562 244.011719 91.269531 243.765625 91.59375 C 243.515625 91.917969 243.308594 92.269531 243.140625 92.640625 C 242.972656 93.015625 242.847656 93.402344 242.769531 93.804688 C 242.691406 94.207031 242.65625 94.613281 242.671875 95.019531 C 242.6875 95.429688 242.75 95.832031 242.855469 96.226562 L 242.855469 121.695312 C 242.855469 122.613281 242.945312 123.527344 243.125 124.429688 C 243.304688 125.332031 243.570312 126.207031 243.921875 127.058594 C 244.273438 127.90625 244.707031 128.714844 245.21875 129.480469 C 245.726562 130.246094 246.308594 130.953125 246.960938 131.605469 C 247.609375 132.253906 248.316406 132.835938 249.082031 133.347656 C 249.847656 133.855469 250.65625 134.289062 251.503906 134.640625 C 252.355469 134.992188 253.230469 135.257812 254.132812 135.4375 C 255.035156 135.617188 255.949219 135.707031 256.867188 135.707031 C 257.789062 135.707031 258.699219 135.617188 259.601562 135.4375 C 260.503906 135.257812 261.378906 134.992188 262.230469 134.640625 C 263.082031 134.289062 263.886719 133.855469 264.652344 133.347656 C 265.417969 132.835938 266.125 132.253906 266.777344 131.605469 C 267.425781 130.953125 268.007812 130.246094 268.519531 129.480469 C 269.03125 128.714844 269.460938 127.90625 269.8125 127.058594 C 270.167969 126.207031 270.433594 125.332031 270.613281 124.429688 C 270.792969 123.527344 270.882812 122.613281 270.882812 121.695312 L 270.882812 83.492188 L 318.832031 83.492188 C 319.75 83.488281 320.660156 83.574219 321.558594 83.753906 C 322.460938 83.929688 323.335938 84.191406 324.183594 84.542969 C 325.03125 84.890625 325.835938 85.320312 326.601562 85.828125 C 327.363281 86.339844 328.070312 86.917969 328.71875 87.566406 C 329.367188 88.214844 329.949219 88.921875 330.457031 89.683594 C 330.964844 90.449219 331.394531 91.253906 331.746094 92.101562 C 332.09375 92.949219 332.355469 93.824219 332.53125 94.726562 C 332.710938 95.625 332.796875 96.535156 332.792969 97.453125 Z M 332.792969 310.945312 " fill-opacity="1" fill-rule="nonzero"/></g><path fill="#004aad" d="M 294.804688 156.0625 L 152.867188 157.019531 C 152.300781 157.171875 151.777344 157.414062 151.289062 157.738281 C 150.804688 158.066406 150.386719 158.460938 150.03125 158.925781 C 149.675781 159.390625 149.402344 159.898438 149.214844 160.453125 C 149.027344 161.007812 148.933594 161.578125 148.933594 162.160156 C 148.933594 162.746094 149.027344 163.316406 149.214844 163.871094 C 149.402344 164.421875 149.675781 164.933594 150.03125 165.398438 C 150.386719 165.863281 150.804688 166.257812 151.289062 166.582031 C 151.777344 166.910156 152.300781 167.148438 152.867188 167.304688 L 295.125 166.398438 C 295.6875 166.242188 296.210938 166.003906 296.699219 165.679688 C 297.183594 165.351562 297.605469 164.957031 297.957031 164.492188 C 298.3125 164.027344 298.585938 163.519531 298.773438 162.964844 C 298.960938 162.410156 299.054688 161.839844 299.054688 161.253906 C 299.054688 160.671875 298.960938 160.101562 298.773438 159.546875 C 298.585938 158.992188 298.3125 158.484375 297.957031 158.019531 C 297.605469 157.554688 297.183594 157.160156 296.699219 156.832031 C 296.210938 156.507812 295.6875 156.265625 295.125 156.113281 Z M 294.804688 156.0625 " fill-opacity="1" fill-rule="nonzero"/><path fill="#004aad" d="M 294.804688 208.753906 L 152.867188 209.714844 C 152.300781 209.867188 151.777344 210.105469 151.289062 210.433594 C 150.804688 210.757812 150.386719 211.15625 150.03125 211.621094 C 149.675781 212.085938 149.402344 212.59375 149.214844 213.148438 C 149.027344 213.703125 148.933594 214.269531 148.933594 214.855469 C 148.933594 215.441406 149.027344 216.007812 149.214844 216.5625 C 149.402344 217.117188 149.675781 217.625 150.03125 218.089844 C 150.386719 218.554688 150.804688 218.953125 151.289062 219.277344 C 151.777344 219.605469 152.300781 219.84375 152.867188 219.996094 L 295.125 219.039062 C 295.6875 218.882812 296.210938 218.644531 296.699219 218.320312 C 297.183594 217.992188 297.605469 217.597656 297.957031 217.132812 C 298.3125 216.667969 298.585938 216.160156 298.773438 215.605469 C 298.960938 215.050781 299.054688 214.480469 299.054688 213.894531 C 299.054688 213.3125 298.960938 212.742188 298.773438 212.1875 C 298.585938 211.632812 298.3125 211.125 297.957031 210.660156 C 297.605469 210.195312 297.183594 209.800781 296.699219 209.472656 C 296.210938 209.148438 295.6875 208.910156 295.125 208.753906 Z M 294.804688 208.753906 " fill-opacity="1" fill-rule="nonzero"/><path fill="#004aad" d="M 294.804688 261.394531 L 152.867188 262.621094 C 152.515625 262.621094 152.167969 262.65625 151.824219 262.722656 C 151.484375 262.792969 151.148438 262.894531 150.828125 263.027344 C 150.503906 263.160156 150.195312 263.324219 149.90625 263.519531 C 149.613281 263.714844 149.34375 263.933594 149.097656 264.183594 C 148.851562 264.429688 148.628906 264.699219 148.433594 264.988281 C 148.242188 265.28125 148.078125 265.585938 147.941406 265.910156 C 147.808594 266.234375 147.707031 266.566406 147.640625 266.910156 C 147.570312 267.253906 147.539062 267.597656 147.539062 267.949219 C 147.539062 268.300781 147.570312 268.644531 147.640625 268.988281 C 147.707031 269.332031 147.808594 269.664062 147.941406 269.988281 C 148.078125 270.3125 148.242188 270.617188 148.433594 270.910156 C 148.628906 271.199219 148.851562 271.46875 149.097656 271.714844 C 149.34375 271.964844 149.613281 272.183594 149.90625 272.378906 C 150.195312 272.574219 150.503906 272.738281 150.828125 272.871094 C 151.148438 273.003906 151.484375 273.105469 151.824219 273.175781 C 152.167969 273.242188 152.515625 273.277344 152.867188 273.277344 L 295.125 271.679688 C 295.519531 271.785156 295.921875 271.847656 296.328125 271.863281 C 296.738281 271.875 297.144531 271.84375 297.546875 271.765625 C 297.949219 271.6875 298.335938 271.5625 298.707031 271.394531 C 299.082031 271.226562 299.429688 271.019531 299.757812 270.769531 C 300.082031 270.519531 300.375 270.238281 300.636719 269.921875 C 300.894531 269.605469 301.117188 269.265625 301.296875 268.898438 C 301.480469 268.53125 301.617188 268.148438 301.710938 267.75 C 301.800781 267.351562 301.847656 266.945312 301.847656 266.539062 C 301.847656 266.128906 301.800781 265.722656 301.707031 265.324219 C 301.617188 264.925781 301.480469 264.542969 301.296875 264.175781 C 301.117188 263.808594 300.894531 263.46875 300.636719 263.152344 C 300.375 262.835938 300.082031 262.554688 299.757812 262.304688 C 299.429688 262.054688 299.082031 261.847656 298.707031 261.679688 C 298.335938 261.511719 297.949219 261.386719 297.546875 261.308594 C 297.144531 261.230469 296.738281 261.199219 296.328125 261.210938 C 295.921875 261.226562 295.519531 261.289062 295.125 261.394531 Z M 294.804688 261.394531 " fill-opacity="1" fill-rule="nonzero"/></svg>